<mxfile host="app.diagrams.net" agent="Mozilla/5.0 (X11; Ubuntu; Linux x86_64; rv:137.0) Gecko/20100101 Firefox/137.0" version="26.2.13">
  <diagram name="PÃ¡gina-1" id="iv0ZN0YzB6YCMKvN8C12">
    <mxGraphModel dx="1362" dy="795" grid="1" gridSize="10" guides="1" tooltips="1" connect="1" arrows="1" fold="1" page="1" pageScale="1" pageWidth="827" pageHeight="1169" math="0" shadow="0">
      <root>
        <mxCell id="0" />
        <mxCell id="1" parent="0" />
        <mxCell id="gmYMh4fB_x02e9kzY7sT-1" value="Inicio" style="ellipse;whiteSpace=wrap;html=1;" vertex="1" parent="1">
          <mxGeometry x="340" y="20" width="120" height="80" as="geometry" />
        </mxCell>
        <mxCell id="gmYMh4fB_x02e9kzY7sT-9" style="edgeStyle=orthogonalEdgeStyle;rounded=0;orthogonalLoop=1;jettySize=auto;html=1;exitX=0.5;exitY=1;exitDx=0;exitDy=0;entryX=0.5;entryY=0;entryDx=0;entryDy=0;" edge="1" parent="1" source="gmYMh4fB_x02e9kzY7sT-3" target="gmYMh4fB_x02e9kzY7sT-5">
          <mxGeometry relative="1" as="geometry" />
        </mxCell>
        <mxCell id="gmYMh4fB_x02e9kzY7sT-3" value="Ingresa edad" style="shape=parallelogram;perimeter=parallelogramPerimeter;whiteSpace=wrap;html=1;fixedSize=1;" vertex="1" parent="1">
          <mxGeometry x="340" y="170" width="120" height="60" as="geometry" />
        </mxCell>
        <mxCell id="gmYMh4fB_x02e9kzY7sT-4" value="" style="endArrow=classic;html=1;rounded=0;exitX=0.5;exitY=1;exitDx=0;exitDy=0;entryX=0.5;entryY=0;entryDx=0;entryDy=0;" edge="1" parent="1" source="gmYMh4fB_x02e9kzY7sT-1" target="gmYMh4fB_x02e9kzY7sT-3">
          <mxGeometry width="50" height="50" relative="1" as="geometry">
            <mxPoint x="390" y="400" as="sourcePoint" />
            <mxPoint x="440" y="350" as="targetPoint" />
          </mxGeometry>
        </mxCell>
        <mxCell id="gmYMh4fB_x02e9kzY7sT-8" style="edgeStyle=orthogonalEdgeStyle;rounded=0;orthogonalLoop=1;jettySize=auto;html=1;exitX=1;exitY=0.5;exitDx=0;exitDy=0;" edge="1" parent="1" source="gmYMh4fB_x02e9kzY7sT-5">
          <mxGeometry relative="1" as="geometry">
            <mxPoint x="600" y="430" as="targetPoint" />
          </mxGeometry>
        </mxCell>
        <mxCell id="gmYMh4fB_x02e9kzY7sT-11" style="edgeStyle=orthogonalEdgeStyle;rounded=0;orthogonalLoop=1;jettySize=auto;html=1;exitX=0;exitY=0.5;exitDx=0;exitDy=0;entryX=0.5;entryY=0;entryDx=0;entryDy=0;" edge="1" parent="1" source="gmYMh4fB_x02e9kzY7sT-5" target="gmYMh4fB_x02e9kzY7sT-10">
          <mxGeometry relative="1" as="geometry" />
        </mxCell>
        <mxCell id="gmYMh4fB_x02e9kzY7sT-5" value="Es mayor de edad?" style="rhombus;whiteSpace=wrap;html=1;" vertex="1" parent="1">
          <mxGeometry x="350" y="300" width="100" height="110" as="geometry" />
        </mxCell>
        <mxCell id="gmYMh4fB_x02e9kzY7sT-6" value="Eres mayor de edad" style="shape=parallelogram;perimeter=parallelogramPerimeter;whiteSpace=wrap;html=1;fixedSize=1;" vertex="1" parent="1">
          <mxGeometry x="530" y="430" width="130" height="60" as="geometry" />
        </mxCell>
        <mxCell id="gmYMh4fB_x02e9kzY7sT-15" style="edgeStyle=orthogonalEdgeStyle;rounded=0;orthogonalLoop=1;jettySize=auto;html=1;exitX=0.5;exitY=1;exitDx=0;exitDy=0;entryX=0;entryY=0.5;entryDx=0;entryDy=0;" edge="1" parent="1" source="gmYMh4fB_x02e9kzY7sT-10" target="gmYMh4fB_x02e9kzY7sT-14">
          <mxGeometry relative="1" as="geometry" />
        </mxCell>
        <mxCell id="gmYMh4fB_x02e9kzY7sT-10" value="Eres menor de edad" style="shape=parallelogram;perimeter=parallelogramPerimeter;whiteSpace=wrap;html=1;fixedSize=1;" vertex="1" parent="1">
          <mxGeometry x="180" y="430" width="120" height="60" as="geometry" />
        </mxCell>
        <mxCell id="gmYMh4fB_x02e9kzY7sT-12" value="NO" style="text;html=1;align=center;verticalAlign=middle;resizable=0;points=[];autosize=1;strokeColor=none;fillColor=none;" vertex="1" parent="1">
          <mxGeometry x="271" y="328" width="40" height="30" as="geometry" />
        </mxCell>
        <mxCell id="gmYMh4fB_x02e9kzY7sT-13" value="SI" style="text;html=1;align=center;verticalAlign=middle;resizable=0;points=[];autosize=1;strokeColor=none;fillColor=none;" vertex="1" parent="1">
          <mxGeometry x="526" y="328" width="30" height="30" as="geometry" />
        </mxCell>
        <mxCell id="gmYMh4fB_x02e9kzY7sT-14" value="FIN" style="ellipse;whiteSpace=wrap;html=1;" vertex="1" parent="1">
          <mxGeometry x="340" y="590" width="120" height="80" as="geometry" />
        </mxCell>
        <mxCell id="gmYMh4fB_x02e9kzY7sT-16" style="edgeStyle=orthogonalEdgeStyle;rounded=0;orthogonalLoop=1;jettySize=auto;html=1;exitX=0.5;exitY=1;exitDx=0;exitDy=0;entryX=1;entryY=0.613;entryDx=0;entryDy=0;entryPerimeter=0;" edge="1" parent="1" source="gmYMh4fB_x02e9kzY7sT-6" target="gmYMh4fB_x02e9kzY7sT-14">
          <mxGeometry relative="1" as="geometry">
            <Array as="points">
              <mxPoint x="595" y="630" />
              <mxPoint x="460" y="630" />
            </Array>
          </mxGeometry>
        </mxCell>
      </root>
    </mxGraphModel>
  </diagram>
</mxfile>
